<?xml version="1.0" encoding="UTF-8"?>
<svg id="Layer_1" data-name="Layer 1" xmlns="http://www.w3.org/2000/svg" viewBox="0 0 1584.05 444.23">
  <defs>
    <style>
      .cls-1 {
        fill: #164c98;
      }

      .cls-2 {
        fill: #e12026;
      }
    </style>
  </defs>
  <path class="cls-1" d="M578.82,444.23c-.49-1.02-1.44-.54-2.17-.6-15.83-1.2-31.29-4.1-46.02-10.2-31.69-13.14-52.19-36.51-62.65-68.93-3.9-12.08-5.83-24.53-6.61-37.17-.08-1.33,.31-1.76,1.63-1.89,8.87-.86,17.73-1.8,26.6-2.72,10.07-1.04,20.13-2.07,30.2-3.1,8.13-.83,16.26-1.65,24.39-2.47,.74-.07,1.48-.1,2.22-.21,4.35-.6,3.47-.55,3.55,3.2,.22,9.97,1.13,19.83,4.33,29.35,2.86,8.51,7.2,16.08,14.2,21.91,7.65,6.37,16.65,9.2,26.42,9.85,20.6,1.38,37.31-6.45,50.8-21.7,9.55-10.79,16.07-23.36,21.12-36.73,5.72-15.18,9.28-30.88,11.34-46.96,1.42-11.08,2.04-22.19,1.57-33.34-.45-10.74-2.16-21.24-6.73-31.09-7.22-15.53-19.67-23.39-36.53-24.73-19.64-1.56-35.18,6.47-48.09,20.56-9.79,10.67-16.71,23.13-22.33,36.37-3.56,8.38-6.47,16.99-8.78,25.79-.76,2.89-1.26,2.25-3,1.9-13.01-2.61-26.01-5.27-39.01-7.93-3.95-.81-7.95-1.34-11.89-2.12-3.2-.63-6.41-1.35-9.6-2.03-7.77-1.66-15.48-3.68-23.44-4.79-.16-1.12,.15-2.1,.42-3.14,2.06-8.08,5.25-15.76,8.44-23.42,2.12-5.09,4.42-10.13,7.18-14.93,5.34-9.31,10.87-18.49,17.64-26.87,2.66-3.3,5.16-6.72,8.1-9.77,3.65-3.77,7.19-7.64,11.09-11.17,6.86-6.23,14.2-11.82,22.03-16.72,16.06-10.06,33.46-16.82,52.01-20.65,18.5-3.82,37.15-4.76,55.97-3.06,12.67,1.14,25.03,3.68,36.99,7.99,12.38,4.45,23.79,10.66,34,19.05,14.89,12.23,25.46,27.48,32.57,45.3,5.91,14.8,9.07,30.16,10.05,46.02,1.21,19.58-.31,38.98-4.09,58.18-2.97,15.07-7.4,29.71-13.6,43.82-6.25,14.21-14.07,27.44-23.69,39.61-5.06,6.41-10.65,12.38-16.7,17.85-7,6.33-14.57,12.01-22.6,16.97-9.48,5.87-19.59,10.51-30.14,14.15-4.91,1.7-9.88,3.15-14.91,4.44-13.1,3.38-26.44,4.99-39.91,5.69-.59,.03-1.33-.31-1.73,.47h-20.63Z"/>
  <path class="cls-1" d="M449.47,0c12.14,.05,24.22,.97,36.32,2.15-1.39,1.16-2.93,1.82-4.55,2.29-5.45,1.56-10.7,3.69-16,5.69-6.85,2.58-13.56,5.5-20.27,8.4-8.96,3.88-17.64,8.31-26.35,12.68-4.97,2.49-9.77,5.32-14.6,8.09-4.5,2.57-8.94,5.23-13.38,7.88-3.59,2.13-7.11,4.38-10.52,6.78-1.29,.91-2.03,.73-3.09-.18-7.2-6.17-14.51-12.2-21.63-18.45-4.5-3.95-9.21-7.65-13.62-11.72-2.62-2.42-5.66-4.39-8.22-7.24C370.44,5.63,407.94,.49,446.12,0h3.35Z"/>
  <path class="cls-2" d="M488.47,80.06c-.76,3.67-1.49,7.36-2.28,11.03-1.12,5.22-2.25,10.43-3.41,15.63-1.53,6.92-3.11,13.82-4.62,20.74-1.63,7.45-3.18,14.91-4.81,22.36-1.56,7.11-3.2,14.19-4.76,21.3-1.96,8.99-3.85,17.99-5.81,26.98-1.54,7.11-3.14,14.21-4.7,21.31-1.03,4.67-2.04,9.34-3.07,14.02-1.22,5.58-2.46,11.15-3.66,16.73-.72,3.33-1.3,6.69-2.12,9.99-.34,1.38,.05,1.76,1.31,2.02,5.68,1.19,11.33,2.49,17.01,3.7,7.39,1.58,14.8,3.11,22.19,4.68,6.13,1.3,12.25,2.6,18.38,3.91,12.96,2.76,25.92,5.52,38.87,8.29,18.78,4.02,37.56,8.05,56.34,12.06,.9,.19,1.8,.33,2.8,.97-8.19,1-16.16,1.97-24.14,2.94-10.23,1.24-20.46,2.49-30.69,3.72-9.77,1.18-19.54,2.35-29.31,3.53-10.23,1.24-20.46,2.49-30.69,3.72-9.77,1.18-19.54,2.35-29.31,3.52-6.73,.8-13.46,1.58-20.19,2.4-2.69,.33-2.7,.35-3.34,3.08-6.37,27.18-12.74,54.36-19.11,81.55-2.07,8.85-4.15,17.7-6.21,26.55-.31,1.33-.64,2.26-2.44,2.26-27.32-.07-54.64-.06-81.95-.07-.18,0-.36-.07-.95-.21,2.82-9.28,6.07-18.39,9.08-27.56,3.01-9.15,6.09-18.28,9.18-27.55-1.99-.52-3.69,.12-5.37,.34-15.74,2.07-31.37,4.69-46.61,9.36-8.5,2.6-15.62,7.03-21.46,13.78-8.16,9.43-15.7,19.31-22.81,29.53-1.19,1.71-2.38,2.39-4.51,2.38-26.48-.08-52.96-.05-79.45-.05-.9,0-1.8,0-3.17,0,1.97-3.29,3.6-6.3,5.52-9.12,3.81-5.59,7.76-11.09,12.09-16.29,4.43-5.33,8.8-10.73,14.04-15.34,2.01-1.77,3.84-3.75,5.61-5.78,3.11-3.55,6.85-6.48,10.35-9.62,2.49-2.24,5.23-4.19,7.8-6.35,5.03-4.23,10.36-8.07,15.77-11.78,13.15-9.03,26.95-16.95,41.42-23.68,9.19-4.27,18.57-8.04,28.05-11.6,7.11-2.68,14.33-5.05,21.6-7.07,12.43-3.45,25.03-6.34,37.77-8.57,14.92-2.61,29.98-4.08,45.03-5.68,14.68-1.56,29.34-3.27,43.87-5.95,4.42-.81,8.75-1.89,12.96-3.44,.08-.03,.18-.05,.25-.1,.98-.6,2.51-.98,2.49-2.21-.02-1.06-1.48-1.35-2.46-1.74-6.15-2.43-12.68-3.01-19.15-3.73-23.74-2.62-47.6-3.56-71.45-4.45-.55-.02-1.12,.07-1.94-.53,5.41-23.04,11.51-46.04,17.38-69.1,5.86-23.05,11.43-46.18,17.6-69.2-.97,1.76-2.02,3.49-2.91,5.29-6.54,13.23-13.17,26.42-19.53,39.73-4.82,10.1-9.98,20.04-14.79,30.15-5.16,10.86-10.63,21.56-15.93,32.35-4.13,8.41-8.23,16.84-12.31,25.27-.56,1.15-1.12,1.74-2.65,1.59-4.29-.4-8.26-1.92-12.27-3.24-5.9-1.94-11.48-4.62-16.69-8.01-6.47-4.21-11.86-9.53-15.39-16.41-3.47-6.77-3.64-14.11-2.9-21.56,.51-5.13,1.91-10.01,4.01-14.61,1.69-3.69,3.41-7.41,5.62-10.87,2.08-3.28,3.82-6.79,5.74-10.17,1.74-3.07,3.52-6.12,5.3-9.17,1.5-2.58,3.01-5.16,4.55-7.71,2.3-3.8,4.29-7.78,6.78-11.47,1.97-2.92,3.6-6.06,5.41-9.08,2.1-3.49,4.25-6.95,6.35-10.44,2.24-3.73,4.44-7.49,6.67-11.22,3.81-6.37,7.59-12.75,11.46-19.08,3.79-6.19,7.67-12.33,11.51-18.49,2.01-3.22,4.08-6.41,5.99-9.69,.46-.79,.96-1.01,1.71-1.04,.74-.03,1.49-.02,2.23-.02,36.7,0,73.41,0,110.11,.01,1,0,2.04-.23,3.13,.3Z"/>
  <path class="cls-1" d="M75.49,429c-24.16,0-48.32,0-72.47,0-3.27,0-3.29,0-2.76-3.21,1.2-7.23,2.58-14.44,3.59-21.69,.54-3.9,1.07-7.84,1.99-11.62,2.41-9.83,4.26-19.79,7.09-29.53,2.15-7.4,4.07-14.87,6.37-22.22,3.15-10.05,6.54-20.03,10.29-29.88,1.71-4.51,3.76-8.88,5.33-13.43,1.5-4.34,3.46-8.49,5.26-12.69,2.71-6.31,5.52-12.58,8.7-18.68,1.34-2.58,2.48-5.26,3.71-7.89,.39-.83,1-1.57,1.35-2.35,.63-1.41,1.5-1.38,2.68-1.04,4.58,1.31,9.17,2.6,13.77,3.88,12.01,3.34,24.03,6.68,36.05,10,12.81,3.54,25.62,7.07,38.44,10.59,13.61,3.74,27.23,7.47,40.84,11.21,.27,.07,.54,.13,.8,.22,1.04,.34,1.8,.59,1.1,2.1-1.33,2.91-2.35,5.95-3.5,8.95-5.24,13.7-10,27.55-14.21,41.6-3.1,10.35-5.99,20.76-8.48,31.26-3.15,13.29-5.88,26.69-8.02,40.19-.6,3.76-1.16,7.52-1.74,11.28q-.45,2.95-3.43,2.95c-24.25,0-48.5,0-72.75,0Z"/>
  <path class="cls-1" d="M285.12,135.75c-1.88,2.16-3.61,4.2-5.38,6.2-6.05,6.86-11.8,13.96-17.43,21.17-9.08,11.62-17.66,23.6-25.72,35.95-5.73,8.79-11.15,17.77-16.42,26.85-7.44,12.84-14.07,26.09-20.54,39.43-.24,.49-.49,.98-.73,1.47-.52,1.06-1.03,1.29-2.35,.82-8.54-3.04-17.16-5.85-25.74-8.8-9.33-3.21-18.63-6.5-27.96-9.72-7.97-2.75-15.95-5.51-23.96-8.14-6.35-2.09-12.58-4.49-18.97-6.48-4.48-1.4-8.89-3.12-13.34-4.67-4.54-1.58-9.07-3.21-13.61-4.8-1.7-.6-1.78-.74-.87-2.17,2.74-4.29,5.59-8.51,8.21-12.87,3.34-5.56,7.12-10.83,10.85-16.11,4.55-6.44,9.19-12.82,14.1-19.01,3.82-4.82,7.62-9.68,11.55-14.42,3.42-4.12,6.99-8.13,10.55-12.13,8.2-9.2,16.76-18.04,25.63-26.57,5.5-5.28,11.15-10.42,16.94-15.41,3.94-3.4,8.04-6.62,11.9-10.13,.53-.48,1.24-.78,1.74-1.28,.86-.86,1.69-.85,2.76-.39,2.86,1.24,5.76,2.38,8.64,3.57,9.59,3.96,19.18,7.9,28.75,11.88,9.74,4.05,19.47,8.16,29.21,12.22,10.49,4.37,20.99,8.7,31.48,13.06,.17,.07,.3,.21,.69,.49Z"/>
  <path class="cls-1" d="M363.08,65.53c-4.43,3.31-8.71,6.4-12.86,9.64-4.61,3.6-9.09,7.36-13.63,11.04-7.15,5.78-13.96,11.95-20.73,18.16-4.79,4.39-9.38,9.01-13.87,13.71-1.71,1.79-3.31,1.96-5.4,1.16-7.81-2.99-15.64-5.93-23.46-8.91-9.31-3.54-18.63-7.09-27.97-10.55-10.94-4.05-21.81-8.26-32.8-12.18-3.6-1.28-7.15-2.69-10.73-4.03-1.46-.55-1.66-1.26-.48-2.17,1.85-1.42,3.78-2.73,5.69-4.07,10.22-7.17,20.74-13.9,31.5-20.21,11.12-6.52,22.55-12.53,34.24-17.95,10.66-4.94,21.48-9.55,32.57-13.5,1.62-.58,2.75-.42,4.04,.53,6.16,4.54,12.36,9.02,18.54,13.54,7.81,5.71,15.61,11.42,23.42,17.13,3.86,2.82,7.74,5.62,11.93,8.66Z"/>
  <path class="cls-1" d="M1211.19,345.8c.49-3.1,.98-6.2,1.47-9.3,1.26-8.07,2.79-16.09,4.28-24.11,.75-4.04,1.24-8.13,2.03-12.16,.79-4.03,1.86-8,2.71-12.02,.24-1.12,.86-1.25,1.77-1.25,6.4,.01,12.8,0,19.43,0,.12,3-.84,5.71-1.35,8.43-2.05,10.91-4.27,21.79-6.46,32.68-2.2,10.94-4.44,21.87-6.63,32.8-.81,4.07-1.58,8.15-2.27,12.25-.19,1.15-.66,1.56-1.81,1.55-7.9-.03-15.79-.04-23.69,0-1.26,0-1.72-.4-1.97-1.68-1.77-9.2-3.65-18.38-5.48-27.57-.58-2.94-1.76-5.82-2.02-8.72-.46-5.19-1.78-10.21-2.44-15.34-.37-2.85-.85-5.69-1.34-8.94-1.04,3.59-1.24,6.95-1.83,10.23-1.78,9.82-3.6,19.62-5.67,29.38-1.44,6.78-2.62,13.62-3.93,20.43-.41,2.16-.43,2.18-2.65,2.18-6.4,.01-12.81,0-19.16,0,1.1-5.42,2.23-10.66,3.21-15.93,.9-4.85,1.39-9.8,2.55-14.58,.77-3.18,1.34-6.41,2.02-9.6,.71-3.28,1.06-6.72,1.92-9.93,1.17-4.38,1.92-8.83,2.87-13.24,1.47-6.8,2.75-13.64,4.1-20.46,.13-.64,.39-1.33,.26-1.92-.4-1.72,.39-2.06,1.89-2.05,8.36,.04,16.72,.04,25.08,0,1.26,0,1.64,.38,1.89,1.68,1.95,10.25,3.96,20.49,6.11,30.7,1.56,7.44,2.94,14.9,4.12,22.41,.22,1.37,.38,2.76,.57,4.14,.14-.02,.28-.04,.42-.06Z"/>
  <path class="cls-1" d="M1122.65,210.43c3.39,1.84,5.79,4.21,7.45,7.28,3.6,6.64,3.43,13.49,.76,20.31-2.79,7.15-8.1,11.72-15.23,14.51-4.88,1.91-9.9,2.57-15.02,2.61-13.46,.11-26.93,.04-40.39,.04-.56,0-1.11-.01-1.67-.03-.61-.02-.86-.51-.69-.94,1.18-2.98,1.31-6.2,2.08-9.28,.74-3,1.25-6.07,1.84-9.11,.69-3.56,1.39-7.11,2.16-10.65,1.76-8.1,3.32-16.25,4.95-24.38,.64-3.18,1.3-6.36,1.87-9.55,.58-3.26,.81-6.6,1.63-9.8,.81-3.17,1.2-6.42,2.07-9.57,.33-1.18,.41-2.45,.79-3.66,.22-.68,.56-.86,1.15-.88,.56-.01,1.11-.02,1.67-.02,11.05,0,22.1-.02,33.15,0,5.15,.01,10.17,.81,14.75,3.25,7.43,3.96,11.13,10.95,10.68,19.78-.47,9.31-5.19,15.89-14,20.08Zm-38.73,28.03c4.82,0,9.36,.08,13.9-.04,2.04-.05,4.03-.63,5.85-1.63,4.74-2.59,6.69-9.72,3.93-14.35-.78-1.31-1.9-2.27-3.3-2.88-1.37-.61-2.8-1.03-4.3-1.05-3.62-.06-7.24-.02-10.86-.11-1.35-.04-1.69,.58-1.9,1.77-.68,3.93-1.49,7.83-2.24,11.74-.4,2.08-1.03,4.13-1.08,6.56Zm7.17-37.06c3.18,.55,12.79,.42,15.37-.2,.72-.17,1.43-.39,2.11-.69,3.93-1.71,5.9-5.6,5.14-10.04-.68-3.98-3.25-6.18-7.84-6.4-3.33-.16-6.67,0-10-.07-1.24-.03-1.59,.61-1.77,1.63-.33,1.82-.72,3.63-1.07,5.44-.66,3.44-1.3,6.88-1.95,10.32Z"/>
  <path class="cls-1" d="M1027.78,326.59c.09-1.57,.58-2.01,2.21-2.03,11.05-.02,22.11-.02,33.16,0,2.18,0,2.26,.08,1.87,2.22-2.82,15.1-5.71,30.2-8.38,45.33-.45,2.52-.45,2.53-2.91,2.54-3.81,.01-7.62,0-11.43,0-4.32,.77-2.16-4.25-2.66-6.94-8.1,8.28-20.43,10.51-31.48,7.74-30.98-10.26-23.41-60.67-3.75-78.85,15.25-14.08,41.83-16.38,56.64-.95,2.72,2.18,9.62,17.42,5.13,18.41-4.93-.76-18.52,1.58-21.41-1.05-1.8-12.5-18.68-12.86-24.4-3.76-3.58,4.57-5.66,9.88-6.96,15.48-11.08,40.96,22.87,42.3,25.81,18.08-3.41-1.18-8.49-.33-12.36-.33-3.01,0-1.61-.09-1.9-2.03"/>
  <path class="cls-1" d="M898.65,324.16c-.29,9.93-2.35,20.03-7.48,29.39-3.46,6.32-8.07,11.51-14,15.71-4.46,3.15-9.44,5.12-14.53,6.17-5.75,1.19-11.78,1.46-17.71,.47-2.74-.46-5.45-.81-8.13-1.78-6.92-2.51-11.82-7.2-15.36-13.44-2.64-4.64-3.59-9.8-4.01-15.06-.5-6.23,.08-12.38,.97-18.57,.9-6.25,2.92-12.07,5.83-17.55,4.49-8.43,10.45-15.68,19.34-19.73,12.39-5.65,25.02-6.5,37.62-.52,6.85,3.25,11.32,8.78,14.16,15.64,2.46,5.95,3.43,12.23,3.28,19.28Zm-23.26-2.53c.15-2.43-.17-4.83-.6-7.2-.23-1.27-.61-2.53-1.08-3.73-1.91-4.93-5.63-7.43-10.89-7.54-4.15-.09-7.57,1.52-10.52,4.29-2.89,2.71-4.91,6.03-6.47,9.63-3.65,8.38-5.26,17.15-4.91,26.27,.11,2.79,.69,5.52,1.84,8.08,1.72,3.83,4.62,6.25,8.8,6.88,4.76,.71,9-.55,12.59-3.83,2.79-2.55,4.76-5.66,6.29-9.08,3.39-7.57,4.64-15.58,4.95-23.78Z"/>
  <path class="cls-1" d="M957.4,213.62c.56,1.09,1.67,1.28,2.41,1.99,3.76,3.62,4.74,8.19,4.66,13.14-.06,3.73-.92,7.36-1.63,11-.9,4.65-1.8,9.29-1.99,14.04-.04,1.1-.43,1.43-1.49,1.42-6.22-.03-12.45-.05-18.67,.01-1.46,.02-1.67-.69-1.69-1.87-.08-4.48,.67-8.87,1.39-13.27,.54-3.29,1.2-6.57,1.66-9.87,.7-5.02-2.38-8.69-7.58-8.81-2.78-.07-5.57-.02-8.36-.01-2.72,0-2.9,.04-3.25,2.59-.57,4.14-1.52,8.2-2.29,12.3-1.09,5.8-2.28,11.58-3.39,17.38-.21,1.1-.72,1.57-1.87,1.56-6.69-.03-13.37-.02-20.06-.01-1.21,0-1.56-.22-1.1-1.62,.74-2.25,1.07-4.65,1.52-6.99,.43-2.25,.75-4.52,1.22-6.76,.73-3.46,1.45-6.92,2.04-10.41,.56-3.35,1.6-6.62,2.28-9.96,1.99-9.72,4.08-19.42,5.79-29.19,.67-3.85,1.28-7.74,2.05-11.56,.68-3.36,1.12-6.81,2.19-10.11,.35-1.06,.75-1.32,1.68-1.27,.09,0,.19,0,.28,0,11.8,0,23.59-.11,35.39,.06,5.4,.08,10.57,1.29,15.31,4.24,4.76,2.96,7.69,7.13,8.96,12.4,1.63,6.79,1,13.4-2.7,19.51-2.17,3.57-5.18,6.24-8.85,8.19-1.28,.68-2.6,1.27-3.91,1.91Zm-19.88-29.09v-.04c-1.67,0-3.35,.06-5.02-.02-1.22-.06-1.82,.28-2.02,1.62-.33,2.29-.92,4.54-1.37,6.82-.64,3.28-1.26,6.56-1.89,9.84-.15,.8-.18,1.54,.95,1.53,4.55-.05,9.13,.42,13.62-.43,5.54-1.06,8.61-4.79,8.78-10.29,.17-5.39-2.7-8.63-8.06-9-1.66-.11-3.34-.02-5.01-.02Z"/>
  <path class="cls-1" d="M903.04,374.31c.46-3.79,1.18-7.54,1.92-11.32,.63-3.21,1.22-6.45,1.85-9.66,.68-3.47,1.28-6.96,2.23-10.39,1.14-4.1,1.75-8.34,2.58-12.53,1.41-7.09,2.85-14.18,4.19-21.29,.78-4.12,1.26-8.3,2.1-12.41,.57-2.77,1.46-5.48,1.63-8.33,.05-.77,.54-1.2,1.19-1.34,.62-.14,1.29-.1,1.94-.1,11.33,0,22.66,0,33.99,0,5.95,0,11.52,1.37,16.56,4.59,4.89,3.12,7.5,7.85,8.59,13.32,1.39,6.97,.31,13.67-3.91,19.51-2.59,3.59-5.78,6.65-10.26,7.9-.35,.1-.68,.29-.99,.48-.14,.08-.21,.28-.33,.45-.02,.86,.86,.85,1.31,1.21,3.48,2.79,4.96,6.56,5.37,10.84,.39,4.11-.34,8.14-1.15,12.15-1.06,5.27-2.25,10.52-2.27,15.93,0,1.49-.95,1.31-1.87,1.31-5.29,0-10.59,0-15.88,0-4.31,0-4.28,0-4.1-4.39,.13-3.07,.62-6.08,1.03-9.12,.42-3.17,1.2-6.28,1.68-9.43,.39-2.5,.91-5.11-.73-7.49-1.21-1.75-2.84-2.98-4.92-3.08-3.8-.19-7.61-.09-11.42-.13-.99,0-1.47,.4-1.66,1.43-1.66,8.81-3.36,17.62-5.06,26.42-.3,1.53-.75,3.03-1.01,4.57-.13,.75-.3,1.21-1.15,1.2-7.05-.09-14.1,.21-21.14-.17-.08,0-.16-.08-.32-.16Zm32.53-50.49c5.1-.16,9.92,.5,14.68-.44,6.13-1.2,9.06-4.96,8.89-11.17-.12-4.73-2.49-7.41-7.17-7.98-3.69-.45-7.41-.09-11.11-.22-1.03-.03-1.53,.4-1.71,1.37-1.16,5.99-2.33,11.97-3.58,18.43Z"/>
  <path class="cls-1" d="M1429.53,374.35c1.06-5.39,2.09-10.66,3.14-15.93,1.18-5.91,2.58-11.79,3.47-17.75,.58-3.88,1.26-7.75,2.05-11.57,.65-3.19,1.21-6.43,2-9.61,.59-2.37,.7-5.02,1.36-7.33,.92-3.21,1.47-6.47,2.18-9.7,.95-4.35,1.77-8.73,2.63-13.09,.47-2.39,.46-2.41,2.76-2.41,11.43,0,22.85,.03,34.28-.02,4.42-.02,8.69,.8,12.67,2.55,7.33,3.23,11.64,9,12.62,16.95,.87,7.03-.55,13.6-5.09,19.26-1.75,2.18-3.92,3.88-6.36,5.21-1.36,.74-2.78,1.39-4.1,2.04-.14,.68,.27,.97,.64,1.21,3.44,2.23,4.88,5.64,5.63,9.46,.87,4.48-.04,8.85-.87,13.22-1.02,5.37-2.15,10.73-2.41,16.21-.06,1.17-.34,1.61-1.56,1.6-6.22-.05-12.45-.04-18.67,0-1.2,0-1.61-.43-1.63-1.62-.09-4.49,.65-8.88,1.36-13.28,.56-3.48,1.28-6.94,1.73-10.43,.46-3.56-1.11-6.29-3.9-7.7-1.05-.53-2.14-.58-3.24-.6-3.16-.04-6.32-.03-9.48-.02-1.98,0-2.01,.03-2.41,2.06-1.75,8.89-3.48,17.78-5.24,26.66-.3,1.53-.04,3.49-1.14,4.47-1.23,1.09-3.2,.38-4.84,.4-4.83,.06-9.66,.03-14.49,.01-.92,0-1.85,.17-3.08-.29Zm32.74-50.73c2.43,.42,4.65,.18,6.86,.2,2.86,.03,5.74,.16,8.56-.55,6.63-1.68,8.68-6.85,8.03-12.12-.52-4.2-2.83-6.37-7.08-6.9-3.78-.46-7.58-.13-11.38-.21-.89-.02-1.28,.39-1.44,1.29-.42,2.37-.96,4.71-1.42,7.07-.72,3.71-1.41,7.42-2.13,11.22Z"/>
  <path class="cls-1" d="M805.25,255.19c-.23-1.52,.85-2.34,1.35-3.36,1.85-3.75,3.16-7.76,5.29-11.38,3.04-5.18,4.84-10.96,7.81-16.17,2.74-4.82,4.45-10.14,7.19-14.95,2.8-4.9,4.51-10.31,7.32-15.19,2.77-4.81,4.46-10.13,7.2-14.95,1.84-3.24,3.38-6.62,4.72-10.09,.49-1.27,1.19-1.83,2.66-1.82,8.83,.07,17.65,.02,26.48,.05,2.08,0,2.18,.13,2.38,2.17,1.34,13.95,2.67,27.91,4.02,41.86,1.35,13.95,2.73,27.9,4.11,41.85,.19,1.95,.21,1.99-1.81,2-6.5,.02-13.01-.04-19.51,.04-1.39,.02-1.64-.47-1.72-1.73-.31-4.91-.81-9.81-1.11-14.72-.09-1.46-.58-1.87-1.99-1.86-6.97,.06-13.94,.05-20.9,0-1.39,0-2.04,.4-2.61,1.81-1.99,4.93-4.26,9.76-6.39,14.64-.46,1.06-.86,1.87-2.3,1.86-7.34-.07-14.68-.03-22.18-.03Zm53.89-69.58c-4.76,10.98-9.72,21.8-14.6,33.04,5.14,0,9.76,.01,14.39,0,2.13,0,2.18-.04,2.06-2.11-.46-7.58-.97-15.16-1.44-22.74-.17-2.73-.27-5.46-.4-8.19Z"/>
  <path class="cls-1" d="M1049.85,255.19c-2.74,0-5.24,0-7.73,0-4.46,0-8.92,0-13.38,0-1.93,0-1.92-.03-2.07-1.89-.38-4.81-.82-9.62-1.13-14.44-.09-1.34-.36-1.98-1.9-1.96-7.06,.08-14.12,.06-21.18,.01-1.31,0-1.85,.48-2.37,1.73-2.03,4.92-4.27,9.75-6.41,14.63-.45,1.02-.74,1.96-2.24,1.94-7.43-.07-14.86-.03-22.27-.03-.21-1.43,.82-2.26,1.32-3.27,1.84-3.76,3.15-7.76,5.28-11.38,3.04-5.18,4.85-10.96,7.82-16.17,2.79-4.9,4.5-10.31,7.31-15.19,2.77-4.81,4.43-10.15,7.21-14.95,2.78-4.8,4.46-10.13,7.18-14.96,1.83-3.25,3.38-6.62,4.72-10.09,.52-1.34,1.29-1.93,2.89-1.91,8.73,.1,17.47,.04,26.2,.06,2.2,0,2.27,.12,2.48,2.36,1.82,18.66,3.66,37.32,5.47,55.98,.94,9.69,1.85,19.39,2.81,29.54Zm-26.79-69.58c-4.73,10.99-9.74,21.79-14.59,33.04,5.15,0,9.77,.01,14.4,0,2.12,0,2.17-.04,2.04-2.13-.46-7.58-.97-15.16-1.44-22.74-.17-2.72-.27-5.45-.41-8.17Z"/>
  <path class="cls-1" d="M1065.72,374.43c-.38-1.17,.21-2.13,.7-3.1,1.51-3,3.21-5.91,4.55-8.98,2.23-5.07,4.84-9.96,7.18-14.97,2.54-5.43,5.29-10.75,7.78-16.18,2.3-5.04,4.96-9.9,7.21-14.94,2.33-5.23,5.07-10.25,7.47-15.43,1.94-4.19,3.8-8.41,6-12.48,.56-1.04,1.19-1.43,2.35-1.42,8.92,.04,17.84,.06,26.75-.01,1.48-.01,1.85,.54,1.97,1.89,.63,6.93,1.35,13.85,2.03,20.78,1.06,10.71,2.11,21.43,3.15,32.14,.99,10.16,1.97,20.32,2.95,30.48,.04,.46,.05,.93,.09,1.39,.06,.7-.27,1.02-.95,1.02-.28,0-.56,.01-.84,.01-6.41,0-12.82-.03-19.23,.02-1.38,.01-1.93-.36-2.01-1.84-.27-4.63-.71-9.25-1.08-13.88-.19-2.34-.18-2.38-2.36-2.39-6.87-.02-13.75,.02-20.62-.03-1.4-.01-2.11,.47-2.66,1.78-2.11,4.98-4.41,9.89-6.52,14.87-.43,1.01-.83,1.48-1.95,1.47-7.15-.04-14.3-.03-21.46-.05-.17,0-.34-.11-.52-.18Zm38.85-36.16c5.15,0,9.95,.02,14.74,0,1.99-.01,2.04-.06,1.87-2.05-.83-9.52-1.39-19.05-1.8-28.6-.03-.82,.03-1.67-.57-2.7-4.38,11.28-9.3,22.12-14.24,33.35Z"/>
  <path class="cls-1" d="M1572.82,312.22c-2.97,0-5.95-.05-8.92,.02-1.35,.03-2.11-.13-2.43-1.77-.72-3.73-3.05-6.33-6.71-7.39-4-1.15-8.02-.84-11.18,2.04-2.67,2.43-2.68,7.64,.41,10.21,1.86,1.55,3.98,2.64,6.21,3.52,5.37,2.12,10.92,3.83,15.98,6.71,4.81,2.73,9.15,6,11.67,11.09,3.26,6.58,3.14,13.43,.98,20.25-2.1,6.62-6.47,11.4-12.55,14.81-5.17,2.9-10.77,3.87-16.5,4.44-5.85,.57-11.78,.44-17.46-.7-7.53-1.5-14.04-5.08-18.35-12.02-2.85-4.6-3.81-9.53-4.15-14.74-.06-.99,.15-1.52,1.34-1.52,6.5,.05,13,.09,19.5-.02,1.78-.03,1.62,1.15,1.81,2.15,.89,4.82,3.55,8.17,8.36,9.26,4.45,1,8.95,1.35,12.78-2.12,3.94-3.57,3.23-9.54-.76-12.66-3.61-2.83-7.9-4.02-12.03-5.63-5.63-2.19-11.24-4.47-15.77-8.56-3.5-3.16-5.93-6.99-6.46-11.97-.61-5.87-.31-11.6,2.14-16.95,3.21-7.02,9.04-11.4,16.28-13.45,9.7-2.74,19.55-2.98,29.24,.38,8.46,2.94,14.41,8.37,16.81,17.24,.46,1.69,.86,3.4,.94,5.16,.1,2.16,.07,2.18-2.01,2.2-3.06,.02-6.13,0-9.2,0Z"/>
  <path class="cls-1" d="M1355.93,374.36c1.06-5.38,2.09-10.65,3.14-15.91,1.17-5.91,2.57-11.79,3.47-17.74,.59-3.88,1.27-7.75,2.04-11.57,.65-3.19,1.25-6.42,2-9.6,.56-2.39,.7-5.01,1.37-7.33,.88-3.03,1.4-6.1,2.06-9.15,1.03-4.71,1.94-9.45,2.8-14.19,.27-1.47,.89-1.94,2.39-1.94,18.48,.05,36.96,.03,55.44,.03,.55,0,1.12-.08,1.77,.39-1.1,5.54-2.23,11.16-3.32,16.8-.16,.84-.66,1.03-1.37,1.03-.65,0-1.3,0-1.95,0-10.31,0-20.62,0-30.93,0-.65,0-1.3,0-1.95,.01-.76,0-1.12,.34-1.27,1.14-.88,4.63-1.83,9.25-2.82,14.19h35.51c-.73,3.77-1.34,7.23-2.09,10.65-.46,2.08-.79,4.18-1.37,6.24-.32,1.13-.76,1.47-1.85,1.45-3.06-.05-6.13-.02-9.19-.02-7.52,0-15.05,0-22.57,0-2.09,0-2.13,.02-2.54,1.98-.97,4.72-1.88,9.46-2.85,14.18-.22,1.08,.04,1.6,1.2,1.55,.65-.03,1.3,0,1.95,0,11.24,0,22.48,0,33.71,.01,1.01,0,2.04-.19,3.16,.25-.22,1.8-1.04,3.42-1.6,5.11-1.17,3.55-2.4,7.09-3.45,10.68-.47,1.6-1.24,2.1-2.91,2.08-10.22-.08-20.43-.04-30.65-.04-8.08,0-16.16,0-24.24,0-.92,0-1.85,.16-3.1-.29Z"/>
  <path class="cls-1" d="M1358.87,287.33c-1.18,5.34-1.99,10.81-3.39,16.16-.29,1.12-1.11,1.91-1.81,2.72-4.61,5.31-9.32,10.53-13.96,15.82-4.63,5.28-9.21,10.61-13.84,15.89-4.39,5.01-8.8,10-13.22,14.99-.91,1.03-1.87,2.02-2.74,3.62h40.07c-1.98,5.95-3.85,11.5-5.66,17.08-.25,.78-.66,1.03-1.38,1.03-.56,0-1.11,0-1.67,0-20.25,0-40.49,0-60.74,0-3.28,0-2.99,.03-2.54-3.37,.5-3.71,1.86-7.2,2.26-10.9,.08-.76,.3-1.41,.82-1.99,6.1-6.82,12.19-13.65,18.27-20.49,2.94-3.31,5.79-6.69,8.77-9.95,5.98-6.53,11.51-13.47,17.71-19.81,.8-.82,1.48-1.75,2.27-2.7-.99-.49-1.92-.28-2.82-.28-10.22-.02-20.43-.01-30.65-.01-.65,0-1.3-.02-1.95,0-.92,.03-1.43-.29-1.21-1.31,.79-3.68,1.14-7.44,2.08-11.11,.31-1.22,1.02-2.52,.75-3.91-.24-1.23,.52-1.67,1.53-1.84,.45-.08,.93-.02,1.39-.02,19.78,0,39.56,0,59.34,0,.72,0,1.49-.18,2.3,.37Z"/>
  <path class="cls-1" d="M1282.94,287.19c-2.87,14.57-5.73,29.05-8.59,43.54-2.34,11.85-4.69,23.69-7.03,35.54-.41,2.07-.79,4.15-1.25,6.21-.48,2.14-.51,2.15-2.66,2.16-3.34,.02-6.69,0-10.03,0-3.42,0-6.85,0-10.12,0-.61-.67-.36-1.24-.26-1.74,2.09-10.55,4.24-21.09,6.3-31.65,.6-3.07,.7-6.26,1.51-9.26,.85-3.17,1.25-6.42,2.04-9.6,.73-2.92,1.15-5.92,1.83-8.86,1.3-5.64,2.35-11.34,3.49-17.02,.53-2.64,1.05-5.27,1.53-7.92,.21-1.18,.74-1.68,2.04-1.67,6.69,.07,13.37,.03,20.06,.05,.35,0,.71,.14,1.14,.22Z"/>
</svg>